<?xml version="1.0" encoding="UTF-8" standalone="no"?>
<svg
   xmlns:dc="http://purl.org/dc/elements/1.1/"
   xmlns:cc="http://creativecommons.org/ns#"
   xmlns:rdf="http://www.w3.org/1999/02/22-rdf-syntax-ns#"
   xmlns:svg="http://www.w3.org/2000/svg"
   xmlns="http://www.w3.org/2000/svg"
   xmlns:sodipodi="http://sodipodi.sourceforge.net/DTD/sodipodi-0.dtd"
   xmlns:inkscape="http://www.inkscape.org/namespaces/inkscape"
   width="2352.9617"
   height="1049.4097"
   viewBox="0 0 181.41899 80.912004"
   version="1.1"
   id="svg3686"
   sodipodi:docname="star-wars.svg"
   inkscape:version="0.92.1 r15371">
  <metadata
     id="metadata3692">
    <rdf:RDF>
      <cc:Work
         rdf:about="">
        <dc:format>image/svg+xml</dc:format>
        <dc:type
           rdf:resource="http://purl.org/dc/dcmitype/StillImage" />
        <dc:title></dc:title>
      </cc:Work>
    </rdf:RDF>
  </metadata>
  <defs
     id="defs3690">
    <clipPath
       clipPathUnits="userSpaceOnUse"
       id="clipPath3702">
      <rect
         style="fill:none;stroke-width:0.0771024"
         id="rect3704"
         width="181.97595"
         height="81.654015"
         x="5.6485281"
         y="55.073147" />
    </clipPath>
  </defs>
  <sodipodi:namedview
     pagecolor="#ffffff"
     bordercolor="#666666"
     borderopacity="1"
     objecttolerance="10"
     gridtolerance="10"
     guidetolerance="10"
     inkscape:pageopacity="0"
     inkscape:pageshadow="2"
     inkscape:window-width="1366"
     inkscape:window-height="715"
     id="namedview3688"
     showgrid="false"
     inkscape:zoom="0.30886424"
     inkscape:cx="1001.187"
     inkscape:cy="558.85403"
     inkscape:window-x="1912"
     inkscape:window-y="415"
     inkscape:window-maximized="1"
     inkscape:current-layer="g3684"
     fit-margin-top="0"
     fit-margin-left="0"
     fit-margin-right="0"
     fit-margin-bottom="0" />
  <g
     id="g3684"
     style="clip-rule:evenodd;fill-rule:evenodd"
     transform="translate(-5.669,-55.922)">
    <path
       d="m 5.669,81.215 v 12.65 h 37.003 c 4.301,0 9.796,-3.977 9.796,-10.556 0,-2.646 1.012,-4.372 -2.098,-7.872 l -4.733,-5.608 c -2.712,-2.53 0.324,-2.53 2.602,-2.53 h 15.623 v 26.566 h 12.39 V 67.299 H 92.951 V 55.922 H 38.877 c -6.579,0 -9.796,6.317 -9.615,9.606 0.182,3.289 0.787,7.427 6.254,12.398 4.987,4.533 -2.469,3.289 -3.218,3.289 z M 120.348,55.922 H 100.36 L 89.155,93.866 h 12.47 l 2.023,-5.313 h 13.156 l 1.953,5.313 h 12.215 z m -13.916,23.522 4.301,-13.916 4.049,13.916 z m 64.011,1.771 c -4.807,0 -4.807,-1.771 -4.807,-1.771 4.119,0 7.771,-6.001 7.771,-12.145 0,-6.144 -6,-11.377 -10.809,-11.377 h -26.891 v 37.944 h 13.664 v -12.65 c 0,0 5.818,6.831 8.854,9.614 3.037,2.783 3.289,3.036 7.41,3.036 h 21.449 v -12.65 c 0.002,-10e-4 -11.834,-10e-4 -16.641,-10e-4 z M 158.045,72.36 h -8.672 v -6.832 h 8.672 c 3.976,0 4.664,6.832 0,6.832 z M 5.669,98.672 h 13.979 l 3.542,12.652 3.289,-12.652 h 14.675 l 3.795,12.652 3.796,-12.652 H 60.889 L 49.756,136.625 H 38.624 L 33.746,118.66 28.25,136.625 H 16.865 Z m 83.909,0.219 H 69.59 l -11.204,37.943 h 12.469 l 2.024,-5.312 h 13.157 l 1.953,5.312 h 12.216 z m -13.915,23.521 4.301,-13.916 4.048,13.916 z m 95.032,-12.353 c -2.275,0 -4.756,0.266 -2.043,2.795 l 4.734,5.609 c 3.109,3.5 3.059,4.959 3.059,7.607 0,6.578 -6.508,10.555 -10.809,10.555 l -29.896,0.201 c -4.119,0 -4.371,-0.252 -7.408,-3.035 -3.035,-2.783 -8.855,-9.615 -8.855,-9.615 v 12.65 H 105.815 V 98.883 h 26.891 c 4.807,0 10.809,5.234 10.809,11.377 0,6.145 -3.652,12.145 -7.773,12.145 0,0 1.812,1.822 4.848,1.822 3.037,0 14.727,0.012 14.727,0.012 0.748,0 8.203,1.244 3.217,-3.289 -5.467,-4.971 -6.072,-9.107 -6.254,-12.396 -0.182,-3.289 2.662,-9.881 9.238,-9.881 h 25.57 v 11.387 h -16.393 z m -42.545,5.261 h -8.674 v -6.832 h 8.674 c 3.977,0 4.664,6.832 0,6.832 z"
       id="path3682"
       inkscape:connector-curvature="0" />
  </g>
</svg>
